<?xml version="1.0" encoding="UTF-8" standalone="no"?>
<!DOCTYPE svg PUBLIC "-//W3C//DTD SVG 1.1//EN" "http://www.w3.org/Graphics/SVG/1.1/DTD/svg11.dtd">
<svg width="100%" height="100%" viewBox="0 0 2500 184" version="1.1" xmlns="http://www.w3.org/2000/svg" xmlns:xlink="http://www.w3.org/1999/xlink" xml:space="preserve" xmlns:serif="http://www.serif.com/" style="fill-rule:evenodd;clip-rule:evenodd;stroke-linejoin:round;stroke-miterlimit:2;">
    <g transform="matrix(4.16667,0,0,4.16667,5.92119e-14,-224.751)">
        <g>
            <path d="M599.9,54.94L599.653,54.94C599.239,54.94 598.903,55.276 598.903,55.69L598.903,59.19C598.903,59.604 599.239,59.94 599.653,59.94L599.9,59.94L599.9,60.94L0,60.94L0,59.19C0,59.604 0.336,59.94 0.75,59.94L2.25,59.94C2.664,59.94 3,59.604 3,59.19L3,55.69C3,55.276 2.664,54.94 2.25,54.94L0.75,54.94C0.336,54.94 0,55.276 0,55.69L0,53.94L599.9,53.94L599.9,54.94ZM102.599,55.69C102.599,55.276 102.262,54.94 101.849,54.94L100.349,54.94C99.935,54.94 99.599,55.276 99.599,55.69L99.599,59.19C99.599,59.604 99.935,59.94 100.349,59.94L101.849,59.94C102.262,59.94 102.599,59.604 102.599,59.19L102.599,55.69ZM366.162,54.94L364.635,54.94C364.221,54.94 363.885,55.276 363.885,55.69L363.885,59.19C363.885,59.604 364.221,59.94 364.635,59.94L366.162,59.94C366.576,59.94 366.912,59.604 366.912,59.19L366.912,55.69C366.912,55.276 366.576,54.94 366.162,54.94ZM97.599,55.69C97.599,55.276 97.262,54.94 96.849,54.94L95.349,54.94C94.935,54.94 94.599,55.276 94.599,55.69L94.599,59.19C94.599,59.604 94.935,59.94 95.349,59.94L96.849,59.94C97.262,59.94 97.599,59.604 97.599,59.19L97.599,55.69ZM376.849,55.69C376.849,55.276 376.513,54.94 376.099,54.94L374.599,54.94C374.186,54.94 373.849,55.276 373.849,55.69L373.849,59.19C373.849,59.604 374.186,59.94 374.599,59.94L376.099,59.94C376.513,59.94 376.849,59.604 376.849,59.19L376.849,55.69ZM112.536,55.69C112.536,55.276 112.2,54.94 111.786,54.94L110.286,54.94C109.872,54.94 109.536,55.276 109.536,55.69L109.536,59.19C109.536,59.604 109.872,59.94 110.286,59.94L111.786,59.94C112.2,59.94 112.536,59.604 112.536,59.19L112.536,55.69ZM371.889,55.69C371.889,55.276 371.553,54.94 371.139,54.94L369.639,54.94C369.225,54.94 368.889,55.276 368.889,55.69L368.889,59.19C368.889,59.604 369.225,59.94 369.639,59.94L371.139,59.94C371.553,59.94 371.889,59.604 371.889,59.19L371.889,55.69ZM107.575,55.69C107.575,55.276 107.239,54.94 106.825,54.94L105.325,54.94C104.911,54.94 104.575,55.276 104.575,55.69L104.575,59.19C104.575,59.604 104.911,59.94 105.325,59.94L106.825,59.94C107.239,59.94 107.575,59.604 107.575,59.19L107.575,55.69ZM42.834,55.69C42.834,55.276 42.498,54.94 42.084,54.94L40.584,54.94C40.17,54.94 39.834,55.276 39.834,55.69L39.834,59.19C39.834,59.604 40.17,59.94 40.584,59.94L42.084,59.94C42.498,59.94 42.834,59.604 42.834,59.19L42.834,55.69ZM117.545,55.69C117.545,55.276 117.209,54.94 116.795,54.94L115.295,54.94C114.881,54.94 114.545,55.276 114.545,55.69L114.545,59.19C114.545,59.604 114.881,59.94 115.295,59.94L116.795,59.94C117.209,59.94 117.545,59.604 117.545,59.19L117.545,55.69ZM381.858,55.69C381.858,55.276 381.522,54.94 381.108,54.94L379.608,54.94C379.194,54.94 378.858,55.276 378.858,55.69L378.858,59.19C378.858,59.604 379.194,59.94 379.608,59.94L381.108,59.94C381.522,59.94 381.858,59.604 381.858,59.19L381.858,55.69ZM122.545,55.69C122.545,55.276 122.209,54.94 121.795,54.94L120.295,54.94C119.881,54.94 119.545,55.276 119.545,55.69L119.545,59.19C119.545,59.604 119.881,59.94 120.295,59.94L121.795,59.94C122.209,59.94 122.545,59.604 122.545,59.19L122.545,55.69ZM386.858,55.69C386.858,55.276 386.522,54.94 386.108,54.94L384.608,54.94C384.194,54.94 383.858,55.276 383.858,55.69L383.858,59.19C383.858,59.604 384.194,59.94 384.608,59.94L386.108,59.94C386.522,59.94 386.858,59.604 386.858,59.19L386.858,55.69ZM130.232,59.94L131.754,59.94C132.168,59.94 132.504,59.604 132.504,59.19L132.504,55.69C132.504,55.276 132.168,54.94 131.754,54.94L130.232,54.94C129.818,54.94 129.482,55.276 129.482,55.69L129.482,59.19C129.482,59.604 129.818,59.94 130.232,59.94ZM47.834,55.69C47.834,55.276 47.498,54.94 47.084,54.94L45.584,54.94C45.17,54.94 44.834,55.276 44.834,55.69L44.834,59.19C44.834,59.604 45.17,59.94 45.584,59.94L47.084,59.94C47.498,59.94 47.834,59.604 47.834,59.19L47.834,55.69ZM389.585,59.94L391.244,59.94C391.658,59.94 391.994,59.604 391.994,59.19L391.994,55.69C391.994,55.276 391.658,54.94 391.244,54.94L389.585,54.94C389.171,54.94 388.835,55.276 388.835,55.69L388.835,59.19C388.835,59.604 389.171,59.94 389.585,59.94ZM126.771,54.94L125.245,54.94C124.832,54.94 124.495,55.276 124.495,55.69L124.495,59.19C124.495,59.604 124.832,59.94 125.245,59.94L126.771,59.94C127.185,59.94 127.521,59.604 127.521,59.19L127.521,55.69C127.521,55.276 127.185,54.94 126.771,54.94ZM57.771,55.69C57.771,55.276 57.435,54.94 57.021,54.94L55.521,54.94C55.108,54.94 54.771,55.276 54.771,55.69L54.771,59.19C54.771,59.604 55.108,59.94 55.521,59.94L57.021,59.94C57.435,59.94 57.771,59.604 57.771,59.19L57.771,55.69ZM52.811,55.69C52.811,55.276 52.475,54.94 52.061,54.94L50.561,54.94C50.147,54.94 49.811,55.276 49.811,55.69L49.811,59.19C49.811,59.604 50.147,59.94 50.561,59.94L52.061,59.94C52.475,59.94 52.811,59.604 52.811,59.19L52.811,55.69ZM401.944,55.69C401.944,55.276 401.608,54.94 401.194,54.94L399.694,54.94C399.28,54.94 398.944,55.276 398.944,55.69L398.944,59.19C398.944,59.604 399.28,59.94 399.694,59.94L401.194,59.94C401.608,59.94 401.944,59.604 401.944,59.19L401.944,55.69ZM586.894,55.69C586.894,55.276 586.558,54.94 586.144,54.94L584.644,54.94C584.23,54.94 583.894,55.276 583.894,55.69L583.894,59.19C583.894,59.604 584.23,59.94 584.644,59.94L586.144,59.94C586.558,59.94 586.894,59.604 586.894,59.19L586.894,55.69ZM77.718,55.69C77.718,55.276 77.382,54.94 76.968,54.94L75.468,54.94C75.054,54.94 74.718,55.276 74.718,55.69L74.718,59.19C74.718,59.604 75.054,59.94 75.468,59.94L76.968,59.94C77.382,59.94 77.718,59.604 77.718,59.19L77.718,55.69ZM167.323,55.69C167.323,55.276 166.986,54.94 166.573,54.94L165.073,54.94C164.659,54.94 164.323,55.276 164.323,55.69L164.323,59.19C164.323,59.604 164.659,59.94 165.073,59.94L166.573,59.94C166.986,59.94 167.323,59.604 167.323,59.19L167.323,55.69ZM72.757,55.69C72.757,55.276 72.421,54.94 72.007,54.94L70.507,54.94C70.093,54.94 69.757,55.276 69.757,55.69L69.757,59.19C69.757,59.604 70.093,59.94 70.507,59.94L72.007,59.94C72.421,59.94 72.757,59.604 72.757,59.19L72.757,55.69ZM82.711,55.69C82.711,55.276 82.375,54.94 81.961,54.94L80.461,54.94C80.047,54.94 79.711,55.276 79.711,55.69L79.711,59.19C79.711,59.604 80.047,59.94 80.461,59.94L81.961,59.94C82.375,59.94 82.711,59.604 82.711,59.19L82.711,55.69ZM87.687,55.69C87.687,55.276 87.351,54.94 86.937,54.94L85.437,54.94C85.023,54.94 84.687,55.276 84.687,55.69L84.687,59.19C84.687,59.604 85.023,59.94 85.437,59.94L86.937,59.94C87.351,59.94 87.687,59.604 87.687,59.19L87.687,55.69ZM17.937,55.69C17.937,55.276 17.601,54.94 17.187,54.94L15.687,54.94C15.273,54.94 14.937,55.276 14.937,55.69L14.937,59.19C14.937,59.604 15.273,59.94 15.687,59.94L17.187,59.94C17.601,59.94 17.937,59.604 17.937,59.19L17.937,55.69ZM67.78,55.69C67.78,55.276 67.444,54.94 67.03,54.94L65.53,54.94C65.117,54.94 64.78,55.276 64.78,55.69L64.78,59.19C64.78,59.604 65.117,59.94 65.53,59.94L67.03,59.94C67.444,59.94 67.78,59.604 67.78,59.19L67.78,55.69ZM182.26,55.69C182.26,55.276 181.924,54.94 181.51,54.94L180.01,54.94C179.596,54.94 179.26,55.276 179.26,55.69L179.26,59.19C179.26,59.604 179.596,59.94 180.01,59.94L181.51,59.94C181.924,59.94 182.26,59.604 182.26,59.19L182.26,55.69ZM92.648,55.69C92.648,55.276 92.312,54.94 91.898,54.94L90.398,54.94C89.984,54.94 89.648,55.276 89.648,55.69L89.648,59.19C89.648,59.604 89.984,59.94 90.398,59.94L91.898,59.94C92.312,59.94 92.648,59.604 92.648,59.19L92.648,55.69ZM8,55.69C8,55.276 7.664,54.94 7.25,54.94L5.75,54.94C5.336,54.94 5,55.276 5,55.69L5,59.19C5,59.604 5.336,59.94 5.75,59.94L7.25,59.94C7.664,59.94 8,59.604 8,59.19L8,55.69ZM177.299,55.69C177.299,55.276 176.963,54.94 176.549,54.94L175.049,54.94C174.635,54.94 174.299,55.276 174.299,55.69L174.299,59.19C174.299,59.604 174.635,59.94 175.049,59.94L176.549,59.94C176.963,59.94 177.299,59.604 177.299,59.19L177.299,55.69ZM596.871,55.69C596.871,55.276 596.535,54.94 596.121,54.94L594.621,54.94C594.207,54.94 593.871,55.276 593.871,55.69L593.871,59.19C593.871,59.604 594.207,59.94 594.621,59.94L596.121,59.94C596.535,59.94 596.871,59.604 596.871,59.19L596.871,55.69ZM12.977,55.69C12.977,55.276 12.64,54.94 12.227,54.94L10.727,54.94C10.313,54.94 9.977,55.276 9.977,55.69L9.977,59.19C9.977,59.604 10.313,59.94 10.727,59.94L12.227,59.94C12.64,59.94 12.977,59.604 12.977,59.19L12.977,55.69ZM591.894,55.69C591.894,55.276 591.558,54.94 591.144,54.94L589.644,54.94C589.23,54.94 588.894,55.276 588.894,55.69L588.894,59.19C588.894,59.604 589.23,59.94 589.644,59.94L591.144,59.94C591.558,59.94 591.894,59.604 591.894,59.19L591.894,55.69ZM411.881,55.69C411.881,55.276 411.545,54.94 411.131,54.94L409.631,54.94C409.217,54.94 408.881,55.276 408.881,55.69L408.881,59.19C408.881,59.604 409.217,59.94 409.631,59.94L411.131,59.94C411.545,59.94 411.881,59.604 411.881,59.19L411.881,55.69ZM396.944,55.69C396.944,55.276 396.608,54.94 396.194,54.94L394.694,54.94C394.28,54.94 393.944,55.276 393.944,55.69L393.944,59.19C393.944,59.604 394.28,59.94 394.694,59.94L396.194,59.94C396.608,59.94 396.944,59.604 396.944,59.19L396.944,55.69ZM62.78,55.69C62.78,55.276 62.444,54.94 62.03,54.94L60.53,54.94C60.117,54.94 59.78,55.276 59.78,55.69L59.78,59.19C59.78,59.604 60.117,59.94 60.53,59.94L62.03,59.94C62.444,59.94 62.78,59.604 62.78,59.19L62.78,55.69ZM406.92,55.69C406.92,55.276 406.584,54.94 406.17,54.94L404.67,54.94C404.256,54.94 403.92,55.276 403.92,55.69L403.92,59.19C403.92,59.604 404.256,59.94 404.67,59.94L406.17,59.94C406.584,59.94 406.92,59.604 406.92,59.19L406.92,55.69ZM172.323,55.69C172.323,55.276 171.986,54.94 171.573,54.94L170.073,54.94C169.659,54.94 169.323,55.276 169.323,55.69L169.323,59.19C169.323,59.604 169.659,59.94 170.073,59.94L171.573,59.94C171.986,59.94 172.323,59.604 172.323,59.19L172.323,55.69ZM27.946,55.69C27.946,55.276 27.61,54.94 27.196,54.94L25.696,54.94C25.282,54.94 24.946,55.276 24.946,55.69L24.946,59.19C24.946,59.604 25.282,59.94 25.696,59.94L27.196,59.94C27.61,59.94 27.946,59.604 27.946,59.19L27.946,55.69ZM32.923,55.69C32.923,55.276 32.587,54.94 32.173,54.94L30.673,54.94C30.259,54.94 29.923,55.276 29.923,55.69L29.923,59.19C29.923,59.604 30.259,59.94 30.673,59.94L32.173,59.94C32.587,59.94 32.923,59.604 32.923,59.19L32.923,55.69ZM192.269,55.69C192.269,55.276 191.933,54.94 191.519,54.94L190.019,54.94C189.605,54.94 189.269,55.276 189.269,55.69L189.269,59.19C189.269,59.604 189.605,59.94 190.019,59.94L191.519,59.94C191.933,59.94 192.269,59.604 192.269,59.19L192.269,55.69ZM416.89,55.69C416.89,55.276 416.554,54.94 416.14,54.94L414.64,54.94C414.226,54.94 413.89,55.276 413.89,55.69L413.89,59.19C413.89,59.604 414.226,59.94 414.64,59.94L416.14,59.94C416.554,59.94 416.89,59.604 416.89,59.19L416.89,55.69ZM199.956,59.94L201.5,59.94C201.914,59.94 202.25,59.604 202.25,59.19L202.25,55.69C202.25,55.276 201.914,54.94 201.5,54.94L199.956,54.94C199.542,54.94 199.206,55.276 199.206,55.69L199.206,59.19C199.206,59.604 199.542,59.94 199.956,59.94ZM22.946,55.69C22.946,55.276 22.61,54.94 22.196,54.94L20.696,54.94C20.282,54.94 19.946,55.276 19.946,55.69L19.946,59.19C19.946,59.604 20.282,59.94 20.696,59.94L22.196,59.94C22.61,59.94 22.946,59.604 22.946,59.19L22.946,55.69ZM424.617,59.94L426.242,59.94C426.656,59.94 426.992,59.604 426.992,59.19L426.992,55.69C426.992,55.276 426.656,54.94 426.242,54.94L424.617,54.94C424.203,54.94 423.867,55.276 423.867,55.69L423.867,59.19C423.867,59.604 424.203,59.94 424.617,59.94ZM37.884,55.69C37.884,55.276 37.548,54.94 37.134,54.94L35.634,54.94C35.22,54.94 34.884,55.276 34.884,55.69L34.884,59.19C34.884,59.604 35.22,59.94 35.634,59.94L37.134,59.94C37.548,59.94 37.884,59.604 37.884,59.19L37.884,55.69ZM187.269,55.69C187.269,55.276 186.933,54.94 186.519,54.94L185.019,54.94C184.605,54.94 184.269,55.276 184.269,55.69L184.269,59.19C184.269,59.604 184.605,59.94 185.019,59.94L186.519,59.94C186.933,59.94 187.269,59.604 187.269,59.19L187.269,55.69ZM197.245,55.69C197.245,55.276 196.909,54.94 196.495,54.94L194.995,54.94C194.582,54.94 194.245,55.276 194.245,55.69L194.245,59.19C194.245,59.604 194.582,59.94 194.995,59.94L196.495,59.94C196.909,59.94 197.245,59.604 197.245,59.19L197.245,55.69ZM421.89,55.69C421.89,55.276 421.554,54.94 421.14,54.94L419.64,54.94C419.226,54.94 418.89,55.276 418.89,55.69L418.89,59.19C418.89,59.604 419.226,59.94 419.64,59.94L421.14,59.94C421.554,59.94 421.89,59.604 421.89,59.19L421.89,55.69ZM222.137,55.69C222.137,55.276 221.801,54.94 221.387,54.94L219.887,54.94C219.473,54.94 219.137,55.276 219.137,55.69L219.137,59.19C219.137,59.604 219.473,59.94 219.887,59.94L221.387,59.94C221.801,59.94 222.137,59.604 222.137,59.19L222.137,55.69ZM137.504,55.69C137.504,55.276 137.168,54.94 136.754,54.94L135.254,54.94C134.841,54.94 134.504,55.276 134.504,55.69L134.504,59.19C134.504,59.604 134.841,59.94 135.254,59.94L136.754,59.94C137.168,59.94 137.504,59.604 137.504,59.19L137.504,55.69ZM217.176,55.69C217.176,55.276 216.84,54.94 216.426,54.94L214.926,54.94C214.512,54.94 214.176,55.276 214.176,55.69L214.176,59.19C214.176,59.604 214.512,59.94 214.926,59.94L216.426,59.94C216.84,59.94 217.176,59.604 217.176,59.19L217.176,55.69ZM152.435,55.69C152.435,55.276 152.099,54.94 151.685,54.94L150.185,54.94C149.771,54.94 149.435,55.276 149.435,55.69L149.435,59.19C149.435,59.604 149.771,59.94 150.185,59.94L151.685,59.94C152.099,59.94 152.435,59.604 152.435,59.19L152.435,55.69ZM157.411,55.69C157.411,55.276 157.075,54.94 156.661,54.94L155.161,54.94C154.747,54.94 154.411,55.276 154.411,55.69L154.411,59.19C154.411,59.604 154.747,59.94 155.161,59.94L156.661,59.94C157.075,59.94 157.411,59.604 157.411,59.19L157.411,55.69ZM212.2,55.69C212.2,55.276 211.864,54.94 211.45,54.94L209.95,54.94C209.536,54.94 209.2,55.276 209.2,55.69L209.2,59.19C209.2,59.604 209.536,59.94 209.95,59.94L211.45,59.94C211.864,59.94 212.2,59.604 212.2,59.19L212.2,55.69ZM162.372,55.69C162.372,55.276 162.036,54.94 161.622,54.94L160.122,54.94C159.708,54.94 159.372,55.276 159.372,55.69L159.372,59.19C159.372,59.604 159.708,59.94 160.122,59.94L161.622,59.94C162.036,59.94 162.372,59.604 162.372,59.19L162.372,55.69ZM147.442,55.69C147.442,55.276 147.106,54.94 146.692,54.94L145.192,54.94C144.778,54.94 144.442,55.276 144.442,55.69L144.442,59.19C144.442,59.604 144.778,59.94 145.192,59.94L146.692,59.94C147.106,59.94 147.442,59.604 147.442,59.19L147.442,55.69ZM207.2,55.69C207.2,55.276 206.864,54.94 206.45,54.94L204.95,54.94C204.536,54.94 204.2,55.276 204.2,55.69L204.2,59.19C204.2,59.604 204.536,59.94 204.95,59.94L206.45,59.94C206.864,59.94 207.2,59.604 207.2,59.19L207.2,55.69ZM142.481,55.69C142.481,55.276 142.145,54.94 141.731,54.94L140.231,54.94C139.817,54.94 139.481,55.276 139.481,55.69L139.481,59.19C139.481,59.604 139.817,59.94 140.231,59.94L141.731,59.94C142.145,59.94 142.481,59.604 142.481,59.19L142.481,55.69ZM232.146,55.69C232.146,55.276 231.81,54.94 231.396,54.94L229.896,54.94C229.482,54.94 229.146,55.276 229.146,55.69L229.146,59.19C229.146,59.604 229.482,59.94 229.896,59.94L231.396,59.94C231.81,59.94 232.146,59.604 232.146,59.19L232.146,55.69ZM437.001,55.69C437.001,55.276 436.665,54.94 436.251,54.94L434.751,54.94C434.337,54.94 434.001,55.276 434.001,55.69L434.001,59.19C434.001,59.604 434.337,59.94 434.751,59.94L436.251,59.94C436.665,59.94 437.001,59.604 437.001,59.19L437.001,55.69ZM237.123,55.69C237.123,55.276 236.787,54.94 236.373,54.94L234.873,54.94C234.459,54.94 234.123,55.276 234.123,55.69L234.123,59.19C234.123,59.604 234.459,59.94 234.873,59.94L236.373,59.94C236.787,59.94 237.123,59.604 237.123,59.19L237.123,55.69ZM439.727,59.94L441.386,59.94C441.8,59.94 442.136,59.604 442.136,59.19L442.136,55.69C442.136,55.276 441.8,54.94 441.386,54.94L439.727,54.94C439.313,54.94 438.977,55.276 438.977,55.69L438.977,59.19C438.977,59.604 439.313,59.94 439.727,59.94ZM276.99,55.69C276.99,55.276 276.654,54.94 276.24,54.94L274.74,54.94C274.326,54.94 273.99,55.276 273.99,55.69L273.99,59.19C273.99,59.604 274.326,59.94 274.74,59.94L276.24,59.94C276.654,59.94 276.99,59.604 276.99,59.19L276.99,55.69ZM272.029,55.69C272.029,55.276 271.693,54.94 271.279,54.94L269.779,54.94C269.365,54.94 269.029,55.276 269.029,55.69L269.029,59.19C269.029,59.604 269.365,59.94 269.779,59.94L271.279,59.94C271.693,59.94 272.029,59.604 272.029,59.19L272.029,55.69ZM239.834,59.94L241.422,59.94C241.836,59.94 242.172,59.604 242.172,59.19L242.172,55.69C242.172,55.276 241.836,54.94 241.422,54.94L239.834,54.94C239.42,54.94 239.084,55.276 239.084,55.69L239.084,59.19C239.084,59.604 239.42,59.94 239.834,59.94ZM432.001,55.69C432.001,55.276 431.665,54.94 431.251,54.94L429.751,54.94C429.337,54.94 429.001,55.276 429.001,55.69L429.001,59.19C429.001,59.604 429.337,59.94 429.751,59.94L431.251,59.94C431.665,59.94 432.001,59.604 432.001,59.19L432.001,55.69ZM227.146,55.69C227.146,55.276 226.81,54.94 226.396,54.94L224.896,54.94C224.482,54.94 224.146,55.276 224.146,55.69L224.146,59.19C224.146,59.604 224.482,59.94 224.896,59.94L226.396,59.94C226.81,59.94 227.146,59.604 227.146,59.19L227.146,55.69ZM262.052,55.69C262.052,55.276 261.716,54.94 261.302,54.94L259.802,54.94C259.389,54.94 259.052,55.276 259.052,55.69L259.052,59.19C259.052,59.604 259.389,59.94 259.802,59.94L261.302,59.94C261.716,59.94 262.052,59.604 262.052,59.19L262.052,55.69ZM267.052,55.69C267.052,55.276 266.716,54.94 266.302,54.94L264.802,54.94C264.389,54.94 264.052,55.276 264.052,55.69L264.052,59.19C264.052,59.604 264.389,59.94 264.802,59.94L266.302,59.94C266.716,59.94 267.052,59.604 267.052,59.19L267.052,55.69ZM457.063,55.69C457.063,55.276 456.727,54.94 456.313,54.94L454.813,54.94C454.399,54.94 454.063,55.276 454.063,55.69L454.063,59.19C454.063,59.604 454.399,59.94 454.813,59.94L456.313,59.94C456.727,59.94 457.063,59.604 457.063,59.19L457.063,55.69ZM447.086,55.69C447.086,55.276 446.75,54.94 446.336,54.94L444.836,54.94C444.422,54.94 444.086,55.276 444.086,55.69L444.086,59.19C444.086,59.604 444.422,59.94 444.836,59.94L446.336,59.94C446.75,59.94 447.086,59.604 447.086,59.19L447.086,55.69ZM291.975,55.69C291.975,55.276 291.639,54.94 291.225,54.94L289.725,54.94C289.311,54.94 288.975,55.276 288.975,55.69L288.975,59.19C288.975,59.604 289.311,59.94 289.725,59.94L291.225,59.94C291.639,59.94 291.975,59.604 291.975,59.19L291.975,55.69ZM462.024,55.69C462.024,55.276 461.688,54.94 461.274,54.94L459.774,54.94C459.36,54.94 459.024,55.276 459.024,55.69L459.024,59.19C459.024,59.604 459.36,59.94 459.774,59.94L461.274,59.94C461.688,59.94 462.024,59.604 462.024,59.19L462.024,55.69ZM281.999,55.69C281.999,55.276 281.663,54.94 281.249,54.94L279.749,54.94C279.335,54.94 278.999,55.276 278.999,55.69L278.999,59.19C278.999,59.604 279.335,59.94 279.749,59.94L281.249,59.94C281.663,59.94 281.999,59.604 281.999,59.19L281.999,55.69ZM452.086,55.69C452.086,55.276 451.75,54.94 451.336,54.94L449.836,54.94C449.422,54.94 449.086,55.276 449.086,55.69L449.086,59.19C449.086,59.604 449.422,59.94 449.836,59.94L451.336,59.94C451.75,59.94 452.086,59.604 452.086,59.19L452.086,55.69ZM286.999,55.69C286.999,55.276 286.663,54.94 286.249,54.94L284.749,54.94C284.335,54.94 283.999,55.276 283.999,55.69L283.999,59.19C283.999,59.604 284.335,59.94 284.749,59.94L286.249,59.94C286.663,59.94 286.999,59.604 286.999,59.19L286.999,55.69ZM306.93,55.69C306.93,55.276 306.594,54.94 306.18,54.94L304.68,54.94C304.266,54.94 303.93,55.276 303.93,55.69L303.93,59.19C303.93,59.604 304.266,59.94 304.68,59.94L306.18,59.94C306.594,59.94 306.93,59.604 306.93,59.19L306.93,55.69ZM301.93,55.69C301.93,55.276 301.594,54.94 301.18,54.94L299.68,54.94C299.266,54.94 298.93,55.276 298.93,55.69L298.93,59.19C298.93,59.604 299.266,59.94 299.68,59.94L301.18,59.94C301.594,59.94 301.93,59.604 301.93,59.19L301.93,55.69ZM257.102,55.69C257.102,55.276 256.766,54.94 256.352,54.94L254.852,54.94C254.438,54.94 254.102,55.276 254.102,55.69L254.102,59.19C254.102,59.604 254.438,59.94 254.852,59.94L256.352,59.94C256.766,59.94 257.102,59.604 257.102,59.19L257.102,55.69ZM472.033,55.69C472.033,55.276 471.697,54.94 471.283,54.94L469.783,54.94C469.369,54.94 469.033,55.276 469.033,55.69L469.033,59.19C469.033,59.604 469.369,59.94 469.783,59.94L471.283,59.94C471.697,59.94 472.033,59.604 472.033,59.19L472.033,55.69ZM316.867,55.69C316.867,55.276 316.531,54.94 316.117,54.94L314.617,54.94C314.203,54.94 313.867,55.276 313.867,55.69L313.867,59.19C313.867,59.604 314.203,59.94 314.617,59.94L316.117,59.94C316.531,59.94 316.867,59.604 316.867,59.19L316.867,55.69ZM474.759,59.94L476.385,59.94C476.799,59.94 477.135,59.604 477.135,59.19L477.135,55.69C477.135,55.276 476.799,54.94 476.385,54.94L474.759,54.94C474.345,54.94 474.009,55.276 474.009,55.69L474.009,59.19C474.009,59.604 474.345,59.94 474.759,59.94ZM252.141,55.69C252.141,55.276 251.805,54.94 251.391,54.94L249.891,54.94C249.477,54.94 249.141,55.276 249.141,55.69L249.141,59.19C249.141,59.604 249.477,59.94 249.891,59.94L251.391,59.94C251.805,59.94 252.141,59.604 252.141,59.19L252.141,55.69ZM247.165,55.69C247.165,55.276 246.829,54.94 246.415,54.94L244.915,54.94C244.501,54.94 244.165,55.276 244.165,55.69L244.165,59.19C244.165,59.604 244.501,59.94 244.915,59.94L246.415,59.94C246.829,59.94 247.165,59.604 247.165,59.19L247.165,55.69ZM311.906,55.69C311.906,55.276 311.57,54.94 311.156,54.94L309.656,54.94C309.242,54.94 308.906,55.276 308.906,55.69L308.906,59.19C308.906,59.604 309.242,59.94 309.656,59.94L311.156,59.94C311.57,59.94 311.906,59.604 311.906,59.19L311.906,55.69ZM467.033,55.69C467.033,55.276 466.697,54.94 466.283,54.94L464.783,54.94C464.369,54.94 464.033,55.276 464.033,55.69L464.033,59.19C464.033,59.604 464.369,59.94 464.783,59.94L466.283,59.94C466.697,59.94 467.033,59.604 467.033,59.19L467.033,55.69ZM329.603,59.94L331.261,59.94C331.675,59.94 332.011,59.604 332.011,59.19L332.011,55.69C332.011,55.276 331.675,54.94 331.261,54.94L329.603,54.94C329.189,54.94 328.853,55.276 328.853,55.69L328.853,59.19C328.853,59.604 329.189,59.94 329.603,59.94ZM482.112,55.69C482.112,55.276 481.776,54.94 481.362,54.94L479.862,54.94C479.448,54.94 479.112,55.276 479.112,55.69L479.112,59.19C479.112,59.604 479.448,59.94 479.862,59.94L481.362,59.94C481.776,59.94 482.112,59.604 482.112,59.19L482.112,55.69ZM326.876,55.69C326.876,55.276 326.54,54.94 326.126,54.94L324.626,54.94C324.212,54.94 323.876,55.276 323.876,55.69L323.876,59.19C323.876,59.604 324.212,59.94 324.626,59.94L326.126,59.94C326.54,59.94 326.876,59.604 326.876,59.19L326.876,55.69ZM487.073,55.69C487.073,55.276 486.737,54.94 486.323,54.94L484.823,54.94C484.409,54.94 484.073,55.276 484.073,55.69L484.073,59.19C484.073,59.604 484.409,59.94 484.823,59.94L486.323,59.94C486.737,59.94 487.073,59.604 487.073,59.19L487.073,55.69ZM321.876,55.69C321.876,55.276 321.54,54.94 321.126,54.94L319.626,54.94C319.212,54.94 318.876,55.276 318.876,55.69L318.876,59.19C318.876,59.604 319.212,59.94 319.626,59.94L321.126,59.94C321.54,59.94 321.876,59.604 321.876,59.19L321.876,55.69ZM521.95,55.69C521.95,55.276 521.614,54.94 521.2,54.94L519.7,54.94C519.286,54.94 518.95,55.276 518.95,55.69L518.95,59.19C518.95,59.604 519.286,59.94 519.7,59.94L521.2,59.94C521.614,59.94 521.95,59.604 521.95,59.19L521.95,55.69ZM502.058,55.69C502.058,55.276 501.722,54.94 501.308,54.94L499.808,54.94C499.394,54.94 499.058,55.276 499.058,55.69L499.058,59.19C499.058,59.604 499.394,59.94 499.808,59.94L501.308,59.94C501.722,59.94 502.058,59.604 502.058,59.19L502.058,55.69ZM516.989,55.69C516.989,55.276 516.653,54.94 516.239,54.94L514.739,54.94C514.325,54.94 513.989,55.276 513.989,55.69L513.989,59.19C513.989,59.604 514.325,59.94 514.739,59.94L516.239,59.94C516.653,59.94 516.989,59.604 516.989,59.19L516.989,55.69ZM512.013,55.69C512.013,55.276 511.677,54.94 511.263,54.94L509.763,54.94C509.349,54.94 509.013,55.276 509.013,55.69L509.013,59.19C509.013,59.604 509.349,59.94 509.763,59.94L511.263,59.94C511.677,59.94 512.013,59.604 512.013,59.19L512.013,55.69ZM351.899,55.69C351.899,55.276 351.563,54.94 351.149,54.94L349.649,54.94C349.235,54.94 348.899,55.276 348.899,55.69L348.899,59.19C348.899,59.604 349.235,59.94 349.649,59.94L351.149,59.94C351.563,59.94 351.899,59.604 351.899,59.19L351.899,55.69ZM497.082,55.69C497.082,55.276 496.746,54.94 496.332,54.94L494.832,54.94C494.418,54.94 494.082,55.276 494.082,55.69L494.082,59.19C494.082,59.604 494.418,59.94 494.832,59.94L496.332,59.94C496.746,59.94 497.082,59.604 497.082,59.19L497.082,55.69ZM346.938,55.69C346.938,55.276 346.602,54.94 346.188,54.94L344.688,54.94C344.274,54.94 343.938,55.276 343.938,55.69L343.938,59.19C343.938,59.604 344.274,59.94 344.688,59.94L346.188,59.94C346.602,59.94 346.938,59.604 346.938,59.19L346.938,55.69ZM341.962,55.69C341.962,55.276 341.626,54.94 341.212,54.94L339.712,54.94C339.298,54.94 338.962,55.276 338.962,55.69L338.962,59.19C338.962,59.604 339.298,59.94 339.712,59.94L341.212,59.94C341.626,59.94 341.962,59.604 341.962,59.19L341.962,55.69ZM492.082,55.69C492.082,55.276 491.746,54.94 491.332,54.94L489.832,54.94C489.418,54.94 489.082,55.276 489.082,55.69L489.082,59.19C489.082,59.604 489.418,59.94 489.832,59.94L491.332,59.94C491.746,59.94 492.082,59.604 492.082,59.19L492.082,55.69ZM296.98,55.69C296.98,55.276 296.644,54.94 296.23,54.94L294.73,54.94C294.316,54.94 293.98,55.276 293.98,55.69L293.98,59.19C293.98,59.604 294.316,59.94 294.73,59.94L296.23,59.94C296.644,59.94 296.98,59.604 296.98,59.19L296.98,55.69ZM336.962,55.69C336.962,55.276 336.626,54.94 336.212,54.94L334.712,54.94C334.298,54.94 333.962,55.276 333.962,55.69L333.962,59.19C333.962,59.604 334.298,59.94 334.712,59.94L336.212,59.94C336.626,59.94 336.962,59.604 336.962,59.19L336.962,55.69ZM507.013,55.69C507.013,55.276 506.677,54.94 506.263,54.94L504.763,54.94C504.349,54.94 504.013,55.276 504.013,55.69L504.013,59.19C504.013,59.604 504.349,59.94 504.763,59.94L506.263,59.94C506.677,59.94 507.013,59.604 507.013,59.19L507.013,55.69ZM526.959,55.69C526.959,55.276 526.623,54.94 526.209,54.94L524.709,54.94C524.295,54.94 523.959,55.276 523.959,55.69L523.959,59.19C523.959,59.604 524.295,59.94 524.709,59.94L526.209,59.94C526.623,59.94 526.959,59.604 526.959,59.19L526.959,55.69ZM534.686,59.94L536.312,59.94C536.726,59.94 537.062,59.604 537.062,59.19L537.062,55.69C537.062,55.276 536.726,54.94 536.312,54.94L534.686,54.94C534.272,54.94 533.936,55.276 533.936,55.69L533.936,59.19C533.936,59.604 534.272,59.94 534.686,59.94ZM361.908,55.69C361.908,55.276 361.572,54.94 361.158,54.94L359.658,54.94C359.244,54.94 358.908,55.276 358.908,55.69L358.908,59.19C358.908,59.604 359.244,59.94 359.658,59.94L361.158,59.94C361.572,59.94 361.908,59.604 361.908,59.19L361.908,55.69ZM356.908,55.69C356.908,55.276 356.572,54.94 356.158,54.94L354.658,54.94C354.244,54.94 353.908,55.276 353.908,55.69L353.908,59.19C353.908,59.604 354.244,59.94 354.658,59.94L356.158,59.94C356.572,59.94 356.908,59.604 356.908,59.19L356.908,55.69ZM531.959,55.69C531.959,55.276 531.623,54.94 531.209,54.94L529.709,54.94C529.295,54.94 528.959,55.276 528.959,55.69L528.959,59.19C528.959,59.604 529.295,59.94 529.709,59.94L531.209,59.94C531.623,59.94 531.959,59.604 531.959,59.19L531.959,55.69ZM546.999,55.69C546.999,55.276 546.663,54.94 546.249,54.94L544.749,54.94C544.335,54.94 543.999,55.276 543.999,55.69L543.999,59.19C543.999,59.604 544.335,59.94 544.749,59.94L546.249,59.94C546.663,59.94 546.999,59.604 546.999,59.19L546.999,55.69ZM542.038,55.69C542.038,55.276 541.702,54.94 541.288,54.94L539.788,54.94C539.374,54.94 539.038,55.276 539.038,55.69L539.038,59.19C539.038,59.604 539.374,59.94 539.788,59.94L541.288,59.94C541.702,59.94 542.038,59.604 542.038,59.19L542.038,55.69ZM566.946,55.69C566.946,55.276 566.61,54.94 566.196,54.94L564.696,54.94C564.282,54.94 563.946,55.276 563.946,55.69L563.946,59.19C563.946,59.604 564.282,59.94 564.696,59.94L566.196,59.94C566.61,59.94 566.946,59.604 566.946,59.19L566.946,55.69ZM557.008,55.69C557.008,55.276 556.672,54.94 556.258,54.94L554.758,54.94C554.344,54.94 554.008,55.276 554.008,55.69L554.008,59.19C554.008,59.604 554.344,59.94 554.758,59.94L556.258,59.94C556.672,59.94 557.008,59.604 557.008,59.19L557.008,55.69ZM552.008,55.69C552.008,55.276 551.672,54.94 551.258,54.94L549.758,54.94C549.344,54.94 549.008,55.276 549.008,55.69L549.008,59.19C549.008,59.604 549.344,59.94 549.758,59.94L551.258,59.94C551.672,59.94 552.008,59.604 552.008,59.19L552.008,55.69ZM561.245,59.94C561.654,59.935 561.985,59.601 561.985,59.19L561.985,55.69C561.985,55.276 561.649,54.94 561.235,54.94L559.735,54.94C559.321,54.94 558.985,55.276 558.985,55.69L558.985,59.19C558.985,59.604 559.321,59.94 559.735,59.94L561.245,59.94ZM576.955,55.69C576.955,55.276 576.619,54.94 576.205,54.94L574.705,54.94C574.291,54.94 573.955,55.276 573.955,55.69L573.955,59.19C573.955,59.604 574.291,59.94 574.705,59.94L576.205,59.94C576.619,59.94 576.955,59.604 576.955,59.19L576.955,55.69ZM581.931,55.69C581.931,55.276 581.595,54.94 581.181,54.94L579.681,54.94C579.267,54.94 578.931,55.276 578.931,55.69L578.931,59.19C578.931,59.604 579.267,59.94 579.681,59.94L581.181,59.94C581.595,59.94 581.931,59.604 581.931,59.19L581.931,55.69ZM571.955,55.69C571.955,55.276 571.619,54.94 571.205,54.94L569.705,54.94C569.291,54.94 568.955,55.276 568.955,55.69L568.955,59.19C568.955,59.604 569.291,59.94 569.705,59.94L571.205,59.94C571.619,59.94 571.955,59.604 571.955,59.19L571.955,55.69Z"/>
            <g transform="matrix(1,0,0,1,-1.42109e-14,37)">
                <path d="M599.9,54.94L599.653,54.94C599.239,54.94 598.903,55.276 598.903,55.69L598.903,59.19C598.903,59.604 599.239,59.94 599.653,59.94L599.9,59.94L599.9,60.94L0,60.94L0,59.19C0,59.604 0.336,59.94 0.75,59.94L2.25,59.94C2.664,59.94 3,59.604 3,59.19L3,55.69C3,55.276 2.664,54.94 2.25,54.94L0.75,54.94C0.336,54.94 0,55.276 0,55.69L0,53.94L599.9,53.94L599.9,54.94ZM102.599,55.69C102.599,55.276 102.262,54.94 101.849,54.94L100.349,54.94C99.935,54.94 99.599,55.276 99.599,55.69L99.599,59.19C99.599,59.604 99.935,59.94 100.349,59.94L101.849,59.94C102.262,59.94 102.599,59.604 102.599,59.19L102.599,55.69ZM366.162,54.94L364.635,54.94C364.221,54.94 363.885,55.276 363.885,55.69L363.885,59.19C363.885,59.604 364.221,59.94 364.635,59.94L366.162,59.94C366.576,59.94 366.912,59.604 366.912,59.19L366.912,55.69C366.912,55.276 366.576,54.94 366.162,54.94ZM97.599,55.69C97.599,55.276 97.262,54.94 96.849,54.94L95.349,54.94C94.935,54.94 94.599,55.276 94.599,55.69L94.599,59.19C94.599,59.604 94.935,59.94 95.349,59.94L96.849,59.94C97.262,59.94 97.599,59.604 97.599,59.19L97.599,55.69ZM376.849,55.69C376.849,55.276 376.513,54.94 376.099,54.94L374.599,54.94C374.186,54.94 373.849,55.276 373.849,55.69L373.849,59.19C373.849,59.604 374.186,59.94 374.599,59.94L376.099,59.94C376.513,59.94 376.849,59.604 376.849,59.19L376.849,55.69ZM112.536,55.69C112.536,55.276 112.2,54.94 111.786,54.94L110.286,54.94C109.872,54.94 109.536,55.276 109.536,55.69L109.536,59.19C109.536,59.604 109.872,59.94 110.286,59.94L111.786,59.94C112.2,59.94 112.536,59.604 112.536,59.19L112.536,55.69ZM371.889,55.69C371.889,55.276 371.553,54.94 371.139,54.94L369.639,54.94C369.225,54.94 368.889,55.276 368.889,55.69L368.889,59.19C368.889,59.604 369.225,59.94 369.639,59.94L371.139,59.94C371.553,59.94 371.889,59.604 371.889,59.19L371.889,55.69ZM107.575,55.69C107.575,55.276 107.239,54.94 106.825,54.94L105.325,54.94C104.911,54.94 104.575,55.276 104.575,55.69L104.575,59.19C104.575,59.604 104.911,59.94 105.325,59.94L106.825,59.94C107.239,59.94 107.575,59.604 107.575,59.19L107.575,55.69ZM42.834,55.69C42.834,55.276 42.498,54.94 42.084,54.94L40.584,54.94C40.17,54.94 39.834,55.276 39.834,55.69L39.834,59.19C39.834,59.604 40.17,59.94 40.584,59.94L42.084,59.94C42.498,59.94 42.834,59.604 42.834,59.19L42.834,55.69ZM117.545,55.69C117.545,55.276 117.209,54.94 116.795,54.94L115.295,54.94C114.881,54.94 114.545,55.276 114.545,55.69L114.545,59.19C114.545,59.604 114.881,59.94 115.295,59.94L116.795,59.94C117.209,59.94 117.545,59.604 117.545,59.19L117.545,55.69ZM381.858,55.69C381.858,55.276 381.522,54.94 381.108,54.94L379.608,54.94C379.194,54.94 378.858,55.276 378.858,55.69L378.858,59.19C378.858,59.604 379.194,59.94 379.608,59.94L381.108,59.94C381.522,59.94 381.858,59.604 381.858,59.19L381.858,55.69ZM122.545,55.69C122.545,55.276 122.209,54.94 121.795,54.94L120.295,54.94C119.881,54.94 119.545,55.276 119.545,55.69L119.545,59.19C119.545,59.604 119.881,59.94 120.295,59.94L121.795,59.94C122.209,59.94 122.545,59.604 122.545,59.19L122.545,55.69ZM386.858,55.69C386.858,55.276 386.522,54.94 386.108,54.94L384.608,54.94C384.194,54.94 383.858,55.276 383.858,55.69L383.858,59.19C383.858,59.604 384.194,59.94 384.608,59.94L386.108,59.94C386.522,59.94 386.858,59.604 386.858,59.19L386.858,55.69ZM130.232,59.94L131.754,59.94C132.168,59.94 132.504,59.604 132.504,59.19L132.504,55.69C132.504,55.276 132.168,54.94 131.754,54.94L130.232,54.94C129.818,54.94 129.482,55.276 129.482,55.69L129.482,59.19C129.482,59.604 129.818,59.94 130.232,59.94ZM47.834,55.69C47.834,55.276 47.498,54.94 47.084,54.94L45.584,54.94C45.17,54.94 44.834,55.276 44.834,55.69L44.834,59.19C44.834,59.604 45.17,59.94 45.584,59.94L47.084,59.94C47.498,59.94 47.834,59.604 47.834,59.19L47.834,55.69ZM389.585,59.94L391.244,59.94C391.658,59.94 391.994,59.604 391.994,59.19L391.994,55.69C391.994,55.276 391.658,54.94 391.244,54.94L389.585,54.94C389.171,54.94 388.835,55.276 388.835,55.69L388.835,59.19C388.835,59.604 389.171,59.94 389.585,59.94ZM126.771,54.94L125.245,54.94C124.832,54.94 124.495,55.276 124.495,55.69L124.495,59.19C124.495,59.604 124.832,59.94 125.245,59.94L126.771,59.94C127.185,59.94 127.521,59.604 127.521,59.19L127.521,55.69C127.521,55.276 127.185,54.94 126.771,54.94ZM57.771,55.69C57.771,55.276 57.435,54.94 57.021,54.94L55.521,54.94C55.108,54.94 54.771,55.276 54.771,55.69L54.771,59.19C54.771,59.604 55.108,59.94 55.521,59.94L57.021,59.94C57.435,59.94 57.771,59.604 57.771,59.19L57.771,55.69ZM52.811,55.69C52.811,55.276 52.475,54.94 52.061,54.94L50.561,54.94C50.147,54.94 49.811,55.276 49.811,55.69L49.811,59.19C49.811,59.604 50.147,59.94 50.561,59.94L52.061,59.94C52.475,59.94 52.811,59.604 52.811,59.19L52.811,55.69ZM401.944,55.69C401.944,55.276 401.608,54.94 401.194,54.94L399.694,54.94C399.28,54.94 398.944,55.276 398.944,55.69L398.944,59.19C398.944,59.604 399.28,59.94 399.694,59.94L401.194,59.94C401.608,59.94 401.944,59.604 401.944,59.19L401.944,55.69ZM586.894,55.69C586.894,55.276 586.558,54.94 586.144,54.94L584.644,54.94C584.23,54.94 583.894,55.276 583.894,55.69L583.894,59.19C583.894,59.604 584.23,59.94 584.644,59.94L586.144,59.94C586.558,59.94 586.894,59.604 586.894,59.19L586.894,55.69ZM77.718,55.69C77.718,55.276 77.382,54.94 76.968,54.94L75.468,54.94C75.054,54.94 74.718,55.276 74.718,55.69L74.718,59.19C74.718,59.604 75.054,59.94 75.468,59.94L76.968,59.94C77.382,59.94 77.718,59.604 77.718,59.19L77.718,55.69ZM167.323,55.69C167.323,55.276 166.986,54.94 166.573,54.94L165.073,54.94C164.659,54.94 164.323,55.276 164.323,55.69L164.323,59.19C164.323,59.604 164.659,59.94 165.073,59.94L166.573,59.94C166.986,59.94 167.323,59.604 167.323,59.19L167.323,55.69ZM72.757,55.69C72.757,55.276 72.421,54.94 72.007,54.94L70.507,54.94C70.093,54.94 69.757,55.276 69.757,55.69L69.757,59.19C69.757,59.604 70.093,59.94 70.507,59.94L72.007,59.94C72.421,59.94 72.757,59.604 72.757,59.19L72.757,55.69ZM82.711,55.69C82.711,55.276 82.375,54.94 81.961,54.94L80.461,54.94C80.047,54.94 79.711,55.276 79.711,55.69L79.711,59.19C79.711,59.604 80.047,59.94 80.461,59.94L81.961,59.94C82.375,59.94 82.711,59.604 82.711,59.19L82.711,55.69ZM87.687,55.69C87.687,55.276 87.351,54.94 86.937,54.94L85.437,54.94C85.023,54.94 84.687,55.276 84.687,55.69L84.687,59.19C84.687,59.604 85.023,59.94 85.437,59.94L86.937,59.94C87.351,59.94 87.687,59.604 87.687,59.19L87.687,55.69ZM17.937,55.69C17.937,55.276 17.601,54.94 17.187,54.94L15.687,54.94C15.273,54.94 14.937,55.276 14.937,55.69L14.937,59.19C14.937,59.604 15.273,59.94 15.687,59.94L17.187,59.94C17.601,59.94 17.937,59.604 17.937,59.19L17.937,55.69ZM67.78,55.69C67.78,55.276 67.444,54.94 67.03,54.94L65.53,54.94C65.117,54.94 64.78,55.276 64.78,55.69L64.78,59.19C64.78,59.604 65.117,59.94 65.53,59.94L67.03,59.94C67.444,59.94 67.78,59.604 67.78,59.19L67.78,55.69ZM182.26,55.69C182.26,55.276 181.924,54.94 181.51,54.94L180.01,54.94C179.596,54.94 179.26,55.276 179.26,55.69L179.26,59.19C179.26,59.604 179.596,59.94 180.01,59.94L181.51,59.94C181.924,59.94 182.26,59.604 182.26,59.19L182.26,55.69ZM92.648,55.69C92.648,55.276 92.312,54.94 91.898,54.94L90.398,54.94C89.984,54.94 89.648,55.276 89.648,55.69L89.648,59.19C89.648,59.604 89.984,59.94 90.398,59.94L91.898,59.94C92.312,59.94 92.648,59.604 92.648,59.19L92.648,55.69ZM8,55.69C8,55.276 7.664,54.94 7.25,54.94L5.75,54.94C5.336,54.94 5,55.276 5,55.69L5,59.19C5,59.604 5.336,59.94 5.75,59.94L7.25,59.94C7.664,59.94 8,59.604 8,59.19L8,55.69ZM177.299,55.69C177.299,55.276 176.963,54.94 176.549,54.94L175.049,54.94C174.635,54.94 174.299,55.276 174.299,55.69L174.299,59.19C174.299,59.604 174.635,59.94 175.049,59.94L176.549,59.94C176.963,59.94 177.299,59.604 177.299,59.19L177.299,55.69ZM596.871,55.69C596.871,55.276 596.535,54.94 596.121,54.94L594.621,54.94C594.207,54.94 593.871,55.276 593.871,55.69L593.871,59.19C593.871,59.604 594.207,59.94 594.621,59.94L596.121,59.94C596.535,59.94 596.871,59.604 596.871,59.19L596.871,55.69ZM12.977,55.69C12.977,55.276 12.64,54.94 12.227,54.94L10.727,54.94C10.313,54.94 9.977,55.276 9.977,55.69L9.977,59.19C9.977,59.604 10.313,59.94 10.727,59.94L12.227,59.94C12.64,59.94 12.977,59.604 12.977,59.19L12.977,55.69ZM591.894,55.69C591.894,55.276 591.558,54.94 591.144,54.94L589.644,54.94C589.23,54.94 588.894,55.276 588.894,55.69L588.894,59.19C588.894,59.604 589.23,59.94 589.644,59.94L591.144,59.94C591.558,59.94 591.894,59.604 591.894,59.19L591.894,55.69ZM411.881,55.69C411.881,55.276 411.545,54.94 411.131,54.94L409.631,54.94C409.217,54.94 408.881,55.276 408.881,55.69L408.881,59.19C408.881,59.604 409.217,59.94 409.631,59.94L411.131,59.94C411.545,59.94 411.881,59.604 411.881,59.19L411.881,55.69ZM396.944,55.69C396.944,55.276 396.608,54.94 396.194,54.94L394.694,54.94C394.28,54.94 393.944,55.276 393.944,55.69L393.944,59.19C393.944,59.604 394.28,59.94 394.694,59.94L396.194,59.94C396.608,59.94 396.944,59.604 396.944,59.19L396.944,55.69ZM62.78,55.69C62.78,55.276 62.444,54.94 62.03,54.94L60.53,54.94C60.117,54.94 59.78,55.276 59.78,55.69L59.78,59.19C59.78,59.604 60.117,59.94 60.53,59.94L62.03,59.94C62.444,59.94 62.78,59.604 62.78,59.19L62.78,55.69ZM406.92,55.69C406.92,55.276 406.584,54.94 406.17,54.94L404.67,54.94C404.256,54.94 403.92,55.276 403.92,55.69L403.92,59.19C403.92,59.604 404.256,59.94 404.67,59.94L406.17,59.94C406.584,59.94 406.92,59.604 406.92,59.19L406.92,55.69ZM172.323,55.69C172.323,55.276 171.986,54.94 171.573,54.94L170.073,54.94C169.659,54.94 169.323,55.276 169.323,55.69L169.323,59.19C169.323,59.604 169.659,59.94 170.073,59.94L171.573,59.94C171.986,59.94 172.323,59.604 172.323,59.19L172.323,55.69ZM27.946,55.69C27.946,55.276 27.61,54.94 27.196,54.94L25.696,54.94C25.282,54.94 24.946,55.276 24.946,55.69L24.946,59.19C24.946,59.604 25.282,59.94 25.696,59.94L27.196,59.94C27.61,59.94 27.946,59.604 27.946,59.19L27.946,55.69ZM32.923,55.69C32.923,55.276 32.587,54.94 32.173,54.94L30.673,54.94C30.259,54.94 29.923,55.276 29.923,55.69L29.923,59.19C29.923,59.604 30.259,59.94 30.673,59.94L32.173,59.94C32.587,59.94 32.923,59.604 32.923,59.19L32.923,55.69ZM192.269,55.69C192.269,55.276 191.933,54.94 191.519,54.94L190.019,54.94C189.605,54.94 189.269,55.276 189.269,55.69L189.269,59.19C189.269,59.604 189.605,59.94 190.019,59.94L191.519,59.94C191.933,59.94 192.269,59.604 192.269,59.19L192.269,55.69ZM416.89,55.69C416.89,55.276 416.554,54.94 416.14,54.94L414.64,54.94C414.226,54.94 413.89,55.276 413.89,55.69L413.89,59.19C413.89,59.604 414.226,59.94 414.64,59.94L416.14,59.94C416.554,59.94 416.89,59.604 416.89,59.19L416.89,55.69ZM199.956,59.94L201.5,59.94C201.914,59.94 202.25,59.604 202.25,59.19L202.25,55.69C202.25,55.276 201.914,54.94 201.5,54.94L199.956,54.94C199.542,54.94 199.206,55.276 199.206,55.69L199.206,59.19C199.206,59.604 199.542,59.94 199.956,59.94ZM22.946,55.69C22.946,55.276 22.61,54.94 22.196,54.94L20.696,54.94C20.282,54.94 19.946,55.276 19.946,55.69L19.946,59.19C19.946,59.604 20.282,59.94 20.696,59.94L22.196,59.94C22.61,59.94 22.946,59.604 22.946,59.19L22.946,55.69ZM424.617,59.94L426.242,59.94C426.656,59.94 426.992,59.604 426.992,59.19L426.992,55.69C426.992,55.276 426.656,54.94 426.242,54.94L424.617,54.94C424.203,54.94 423.867,55.276 423.867,55.69L423.867,59.19C423.867,59.604 424.203,59.94 424.617,59.94ZM37.884,55.69C37.884,55.276 37.548,54.94 37.134,54.94L35.634,54.94C35.22,54.94 34.884,55.276 34.884,55.69L34.884,59.19C34.884,59.604 35.22,59.94 35.634,59.94L37.134,59.94C37.548,59.94 37.884,59.604 37.884,59.19L37.884,55.69ZM187.269,55.69C187.269,55.276 186.933,54.94 186.519,54.94L185.019,54.94C184.605,54.94 184.269,55.276 184.269,55.69L184.269,59.19C184.269,59.604 184.605,59.94 185.019,59.94L186.519,59.94C186.933,59.94 187.269,59.604 187.269,59.19L187.269,55.69ZM197.245,55.69C197.245,55.276 196.909,54.94 196.495,54.94L194.995,54.94C194.582,54.94 194.245,55.276 194.245,55.69L194.245,59.19C194.245,59.604 194.582,59.94 194.995,59.94L196.495,59.94C196.909,59.94 197.245,59.604 197.245,59.19L197.245,55.69ZM421.89,55.69C421.89,55.276 421.554,54.94 421.14,54.94L419.64,54.94C419.226,54.94 418.89,55.276 418.89,55.69L418.89,59.19C418.89,59.604 419.226,59.94 419.64,59.94L421.14,59.94C421.554,59.94 421.89,59.604 421.89,59.19L421.89,55.69ZM222.137,55.69C222.137,55.276 221.801,54.94 221.387,54.94L219.887,54.94C219.473,54.94 219.137,55.276 219.137,55.69L219.137,59.19C219.137,59.604 219.473,59.94 219.887,59.94L221.387,59.94C221.801,59.94 222.137,59.604 222.137,59.19L222.137,55.69ZM137.504,55.69C137.504,55.276 137.168,54.94 136.754,54.94L135.254,54.94C134.841,54.94 134.504,55.276 134.504,55.69L134.504,59.19C134.504,59.604 134.841,59.94 135.254,59.94L136.754,59.94C137.168,59.94 137.504,59.604 137.504,59.19L137.504,55.69ZM217.176,55.69C217.176,55.276 216.84,54.94 216.426,54.94L214.926,54.94C214.512,54.94 214.176,55.276 214.176,55.69L214.176,59.19C214.176,59.604 214.512,59.94 214.926,59.94L216.426,59.94C216.84,59.94 217.176,59.604 217.176,59.19L217.176,55.69ZM152.435,55.69C152.435,55.276 152.099,54.94 151.685,54.94L150.185,54.94C149.771,54.94 149.435,55.276 149.435,55.69L149.435,59.19C149.435,59.604 149.771,59.94 150.185,59.94L151.685,59.94C152.099,59.94 152.435,59.604 152.435,59.19L152.435,55.69ZM157.411,55.69C157.411,55.276 157.075,54.94 156.661,54.94L155.161,54.94C154.747,54.94 154.411,55.276 154.411,55.69L154.411,59.19C154.411,59.604 154.747,59.94 155.161,59.94L156.661,59.94C157.075,59.94 157.411,59.604 157.411,59.19L157.411,55.69ZM212.2,55.69C212.2,55.276 211.864,54.94 211.45,54.94L209.95,54.94C209.536,54.94 209.2,55.276 209.2,55.69L209.2,59.19C209.2,59.604 209.536,59.94 209.95,59.94L211.45,59.94C211.864,59.94 212.2,59.604 212.2,59.19L212.2,55.69ZM162.372,55.69C162.372,55.276 162.036,54.94 161.622,54.94L160.122,54.94C159.708,54.94 159.372,55.276 159.372,55.69L159.372,59.19C159.372,59.604 159.708,59.94 160.122,59.94L161.622,59.94C162.036,59.94 162.372,59.604 162.372,59.19L162.372,55.69ZM147.442,55.69C147.442,55.276 147.106,54.94 146.692,54.94L145.192,54.94C144.778,54.94 144.442,55.276 144.442,55.69L144.442,59.19C144.442,59.604 144.778,59.94 145.192,59.94L146.692,59.94C147.106,59.94 147.442,59.604 147.442,59.19L147.442,55.69ZM207.2,55.69C207.2,55.276 206.864,54.94 206.45,54.94L204.95,54.94C204.536,54.94 204.2,55.276 204.2,55.69L204.2,59.19C204.2,59.604 204.536,59.94 204.95,59.94L206.45,59.94C206.864,59.94 207.2,59.604 207.2,59.19L207.2,55.69ZM142.481,55.69C142.481,55.276 142.145,54.94 141.731,54.94L140.231,54.94C139.817,54.94 139.481,55.276 139.481,55.69L139.481,59.19C139.481,59.604 139.817,59.94 140.231,59.94L141.731,59.94C142.145,59.94 142.481,59.604 142.481,59.19L142.481,55.69ZM232.146,55.69C232.146,55.276 231.81,54.94 231.396,54.94L229.896,54.94C229.482,54.94 229.146,55.276 229.146,55.69L229.146,59.19C229.146,59.604 229.482,59.94 229.896,59.94L231.396,59.94C231.81,59.94 232.146,59.604 232.146,59.19L232.146,55.69ZM437.001,55.69C437.001,55.276 436.665,54.94 436.251,54.94L434.751,54.94C434.337,54.94 434.001,55.276 434.001,55.69L434.001,59.19C434.001,59.604 434.337,59.94 434.751,59.94L436.251,59.94C436.665,59.94 437.001,59.604 437.001,59.19L437.001,55.69ZM237.123,55.69C237.123,55.276 236.787,54.94 236.373,54.94L234.873,54.94C234.459,54.94 234.123,55.276 234.123,55.69L234.123,59.19C234.123,59.604 234.459,59.94 234.873,59.94L236.373,59.94C236.787,59.94 237.123,59.604 237.123,59.19L237.123,55.69ZM439.727,59.94L441.386,59.94C441.8,59.94 442.136,59.604 442.136,59.19L442.136,55.69C442.136,55.276 441.8,54.94 441.386,54.94L439.727,54.94C439.313,54.94 438.977,55.276 438.977,55.69L438.977,59.19C438.977,59.604 439.313,59.94 439.727,59.94ZM276.99,55.69C276.99,55.276 276.654,54.94 276.24,54.94L274.74,54.94C274.326,54.94 273.99,55.276 273.99,55.69L273.99,59.19C273.99,59.604 274.326,59.94 274.74,59.94L276.24,59.94C276.654,59.94 276.99,59.604 276.99,59.19L276.99,55.69ZM272.029,55.69C272.029,55.276 271.693,54.94 271.279,54.94L269.779,54.94C269.365,54.94 269.029,55.276 269.029,55.69L269.029,59.19C269.029,59.604 269.365,59.94 269.779,59.94L271.279,59.94C271.693,59.94 272.029,59.604 272.029,59.19L272.029,55.69ZM239.834,59.94L241.422,59.94C241.836,59.94 242.172,59.604 242.172,59.19L242.172,55.69C242.172,55.276 241.836,54.94 241.422,54.94L239.834,54.94C239.42,54.94 239.084,55.276 239.084,55.69L239.084,59.19C239.084,59.604 239.42,59.94 239.834,59.94ZM432.001,55.69C432.001,55.276 431.665,54.94 431.251,54.94L429.751,54.94C429.337,54.94 429.001,55.276 429.001,55.69L429.001,59.19C429.001,59.604 429.337,59.94 429.751,59.94L431.251,59.94C431.665,59.94 432.001,59.604 432.001,59.19L432.001,55.69ZM227.146,55.69C227.146,55.276 226.81,54.94 226.396,54.94L224.896,54.94C224.482,54.94 224.146,55.276 224.146,55.69L224.146,59.19C224.146,59.604 224.482,59.94 224.896,59.94L226.396,59.94C226.81,59.94 227.146,59.604 227.146,59.19L227.146,55.69ZM262.052,55.69C262.052,55.276 261.716,54.94 261.302,54.94L259.802,54.94C259.389,54.94 259.052,55.276 259.052,55.69L259.052,59.19C259.052,59.604 259.389,59.94 259.802,59.94L261.302,59.94C261.716,59.94 262.052,59.604 262.052,59.19L262.052,55.69ZM267.052,55.69C267.052,55.276 266.716,54.94 266.302,54.94L264.802,54.94C264.389,54.94 264.052,55.276 264.052,55.69L264.052,59.19C264.052,59.604 264.389,59.94 264.802,59.94L266.302,59.94C266.716,59.94 267.052,59.604 267.052,59.19L267.052,55.69ZM457.063,55.69C457.063,55.276 456.727,54.94 456.313,54.94L454.813,54.94C454.399,54.94 454.063,55.276 454.063,55.69L454.063,59.19C454.063,59.604 454.399,59.94 454.813,59.94L456.313,59.94C456.727,59.94 457.063,59.604 457.063,59.19L457.063,55.69ZM447.086,55.69C447.086,55.276 446.75,54.94 446.336,54.94L444.836,54.94C444.422,54.94 444.086,55.276 444.086,55.69L444.086,59.19C444.086,59.604 444.422,59.94 444.836,59.94L446.336,59.94C446.75,59.94 447.086,59.604 447.086,59.19L447.086,55.69ZM291.975,55.69C291.975,55.276 291.639,54.94 291.225,54.94L289.725,54.94C289.311,54.94 288.975,55.276 288.975,55.69L288.975,59.19C288.975,59.604 289.311,59.94 289.725,59.94L291.225,59.94C291.639,59.94 291.975,59.604 291.975,59.19L291.975,55.69ZM462.024,55.69C462.024,55.276 461.688,54.94 461.274,54.94L459.774,54.94C459.36,54.94 459.024,55.276 459.024,55.69L459.024,59.19C459.024,59.604 459.36,59.94 459.774,59.94L461.274,59.94C461.688,59.94 462.024,59.604 462.024,59.19L462.024,55.69ZM281.999,55.69C281.999,55.276 281.663,54.94 281.249,54.94L279.749,54.94C279.335,54.94 278.999,55.276 278.999,55.69L278.999,59.19C278.999,59.604 279.335,59.94 279.749,59.94L281.249,59.94C281.663,59.94 281.999,59.604 281.999,59.19L281.999,55.69ZM452.086,55.69C452.086,55.276 451.75,54.94 451.336,54.94L449.836,54.94C449.422,54.94 449.086,55.276 449.086,55.69L449.086,59.19C449.086,59.604 449.422,59.94 449.836,59.94L451.336,59.94C451.75,59.94 452.086,59.604 452.086,59.19L452.086,55.69ZM286.999,55.69C286.999,55.276 286.663,54.94 286.249,54.94L284.749,54.94C284.335,54.94 283.999,55.276 283.999,55.69L283.999,59.19C283.999,59.604 284.335,59.94 284.749,59.94L286.249,59.94C286.663,59.94 286.999,59.604 286.999,59.19L286.999,55.69ZM306.93,55.69C306.93,55.276 306.594,54.94 306.18,54.94L304.68,54.94C304.266,54.94 303.93,55.276 303.93,55.69L303.93,59.19C303.93,59.604 304.266,59.94 304.68,59.94L306.18,59.94C306.594,59.94 306.93,59.604 306.93,59.19L306.93,55.69ZM301.93,55.69C301.93,55.276 301.594,54.94 301.18,54.94L299.68,54.94C299.266,54.94 298.93,55.276 298.93,55.69L298.93,59.19C298.93,59.604 299.266,59.94 299.68,59.94L301.18,59.94C301.594,59.94 301.93,59.604 301.93,59.19L301.93,55.69ZM257.102,55.69C257.102,55.276 256.766,54.94 256.352,54.94L254.852,54.94C254.438,54.94 254.102,55.276 254.102,55.69L254.102,59.19C254.102,59.604 254.438,59.94 254.852,59.94L256.352,59.94C256.766,59.94 257.102,59.604 257.102,59.19L257.102,55.69ZM472.033,55.69C472.033,55.276 471.697,54.94 471.283,54.94L469.783,54.94C469.369,54.94 469.033,55.276 469.033,55.69L469.033,59.19C469.033,59.604 469.369,59.94 469.783,59.94L471.283,59.94C471.697,59.94 472.033,59.604 472.033,59.19L472.033,55.69ZM316.867,55.69C316.867,55.276 316.531,54.94 316.117,54.94L314.617,54.94C314.203,54.94 313.867,55.276 313.867,55.69L313.867,59.19C313.867,59.604 314.203,59.94 314.617,59.94L316.117,59.94C316.531,59.94 316.867,59.604 316.867,59.19L316.867,55.69ZM474.759,59.94L476.385,59.94C476.799,59.94 477.135,59.604 477.135,59.19L477.135,55.69C477.135,55.276 476.799,54.94 476.385,54.94L474.759,54.94C474.345,54.94 474.009,55.276 474.009,55.69L474.009,59.19C474.009,59.604 474.345,59.94 474.759,59.94ZM252.141,55.69C252.141,55.276 251.805,54.94 251.391,54.94L249.891,54.94C249.477,54.94 249.141,55.276 249.141,55.69L249.141,59.19C249.141,59.604 249.477,59.94 249.891,59.94L251.391,59.94C251.805,59.94 252.141,59.604 252.141,59.19L252.141,55.69ZM247.165,55.69C247.165,55.276 246.829,54.94 246.415,54.94L244.915,54.94C244.501,54.94 244.165,55.276 244.165,55.69L244.165,59.19C244.165,59.604 244.501,59.94 244.915,59.94L246.415,59.94C246.829,59.94 247.165,59.604 247.165,59.19L247.165,55.69ZM311.906,55.69C311.906,55.276 311.57,54.94 311.156,54.94L309.656,54.94C309.242,54.94 308.906,55.276 308.906,55.69L308.906,59.19C308.906,59.604 309.242,59.94 309.656,59.94L311.156,59.94C311.57,59.94 311.906,59.604 311.906,59.19L311.906,55.69ZM467.033,55.69C467.033,55.276 466.697,54.94 466.283,54.94L464.783,54.94C464.369,54.94 464.033,55.276 464.033,55.69L464.033,59.19C464.033,59.604 464.369,59.94 464.783,59.94L466.283,59.94C466.697,59.94 467.033,59.604 467.033,59.19L467.033,55.69ZM329.603,59.94L331.261,59.94C331.675,59.94 332.011,59.604 332.011,59.19L332.011,55.69C332.011,55.276 331.675,54.94 331.261,54.94L329.603,54.94C329.189,54.94 328.853,55.276 328.853,55.69L328.853,59.19C328.853,59.604 329.189,59.94 329.603,59.94ZM482.112,55.69C482.112,55.276 481.776,54.94 481.362,54.94L479.862,54.94C479.448,54.94 479.112,55.276 479.112,55.69L479.112,59.19C479.112,59.604 479.448,59.94 479.862,59.94L481.362,59.94C481.776,59.94 482.112,59.604 482.112,59.19L482.112,55.69ZM326.876,55.69C326.876,55.276 326.54,54.94 326.126,54.94L324.626,54.94C324.212,54.94 323.876,55.276 323.876,55.69L323.876,59.19C323.876,59.604 324.212,59.94 324.626,59.94L326.126,59.94C326.54,59.94 326.876,59.604 326.876,59.19L326.876,55.69ZM487.073,55.69C487.073,55.276 486.737,54.94 486.323,54.94L484.823,54.94C484.409,54.94 484.073,55.276 484.073,55.69L484.073,59.19C484.073,59.604 484.409,59.94 484.823,59.94L486.323,59.94C486.737,59.94 487.073,59.604 487.073,59.19L487.073,55.69ZM321.876,55.69C321.876,55.276 321.54,54.94 321.126,54.94L319.626,54.94C319.212,54.94 318.876,55.276 318.876,55.69L318.876,59.19C318.876,59.604 319.212,59.94 319.626,59.94L321.126,59.94C321.54,59.94 321.876,59.604 321.876,59.19L321.876,55.69ZM521.95,55.69C521.95,55.276 521.614,54.94 521.2,54.94L519.7,54.94C519.286,54.94 518.95,55.276 518.95,55.69L518.95,59.19C518.95,59.604 519.286,59.94 519.7,59.94L521.2,59.94C521.614,59.94 521.95,59.604 521.95,59.19L521.95,55.69ZM502.058,55.69C502.058,55.276 501.722,54.94 501.308,54.94L499.808,54.94C499.394,54.94 499.058,55.276 499.058,55.69L499.058,59.19C499.058,59.604 499.394,59.94 499.808,59.94L501.308,59.94C501.722,59.94 502.058,59.604 502.058,59.19L502.058,55.69ZM516.989,55.69C516.989,55.276 516.653,54.94 516.239,54.94L514.739,54.94C514.325,54.94 513.989,55.276 513.989,55.69L513.989,59.19C513.989,59.604 514.325,59.94 514.739,59.94L516.239,59.94C516.653,59.94 516.989,59.604 516.989,59.19L516.989,55.69ZM512.013,55.69C512.013,55.276 511.677,54.94 511.263,54.94L509.763,54.94C509.349,54.94 509.013,55.276 509.013,55.69L509.013,59.19C509.013,59.604 509.349,59.94 509.763,59.94L511.263,59.94C511.677,59.94 512.013,59.604 512.013,59.19L512.013,55.69ZM351.899,55.69C351.899,55.276 351.563,54.94 351.149,54.94L349.649,54.94C349.235,54.94 348.899,55.276 348.899,55.69L348.899,59.19C348.899,59.604 349.235,59.94 349.649,59.94L351.149,59.94C351.563,59.94 351.899,59.604 351.899,59.19L351.899,55.69ZM497.082,55.69C497.082,55.276 496.746,54.94 496.332,54.94L494.832,54.94C494.418,54.94 494.082,55.276 494.082,55.69L494.082,59.19C494.082,59.604 494.418,59.94 494.832,59.94L496.332,59.94C496.746,59.94 497.082,59.604 497.082,59.19L497.082,55.69ZM346.938,55.69C346.938,55.276 346.602,54.94 346.188,54.94L344.688,54.94C344.274,54.94 343.938,55.276 343.938,55.69L343.938,59.19C343.938,59.604 344.274,59.94 344.688,59.94L346.188,59.94C346.602,59.94 346.938,59.604 346.938,59.19L346.938,55.69ZM341.962,55.69C341.962,55.276 341.626,54.94 341.212,54.94L339.712,54.94C339.298,54.94 338.962,55.276 338.962,55.69L338.962,59.19C338.962,59.604 339.298,59.94 339.712,59.94L341.212,59.94C341.626,59.94 341.962,59.604 341.962,59.19L341.962,55.69ZM492.082,55.69C492.082,55.276 491.746,54.94 491.332,54.94L489.832,54.94C489.418,54.94 489.082,55.276 489.082,55.69L489.082,59.19C489.082,59.604 489.418,59.94 489.832,59.94L491.332,59.94C491.746,59.94 492.082,59.604 492.082,59.19L492.082,55.69ZM296.98,55.69C296.98,55.276 296.644,54.94 296.23,54.94L294.73,54.94C294.316,54.94 293.98,55.276 293.98,55.69L293.98,59.19C293.98,59.604 294.316,59.94 294.73,59.94L296.23,59.94C296.644,59.94 296.98,59.604 296.98,59.19L296.98,55.69ZM336.962,55.69C336.962,55.276 336.626,54.94 336.212,54.94L334.712,54.94C334.298,54.94 333.962,55.276 333.962,55.69L333.962,59.19C333.962,59.604 334.298,59.94 334.712,59.94L336.212,59.94C336.626,59.94 336.962,59.604 336.962,59.19L336.962,55.69ZM507.013,55.69C507.013,55.276 506.677,54.94 506.263,54.94L504.763,54.94C504.349,54.94 504.013,55.276 504.013,55.69L504.013,59.19C504.013,59.604 504.349,59.94 504.763,59.94L506.263,59.94C506.677,59.94 507.013,59.604 507.013,59.19L507.013,55.69ZM526.959,55.69C526.959,55.276 526.623,54.94 526.209,54.94L524.709,54.94C524.295,54.94 523.959,55.276 523.959,55.69L523.959,59.19C523.959,59.604 524.295,59.94 524.709,59.94L526.209,59.94C526.623,59.94 526.959,59.604 526.959,59.19L526.959,55.69ZM534.686,59.94L536.312,59.94C536.726,59.94 537.062,59.604 537.062,59.19L537.062,55.69C537.062,55.276 536.726,54.94 536.312,54.94L534.686,54.94C534.272,54.94 533.936,55.276 533.936,55.69L533.936,59.19C533.936,59.604 534.272,59.94 534.686,59.94ZM361.908,55.69C361.908,55.276 361.572,54.94 361.158,54.94L359.658,54.94C359.244,54.94 358.908,55.276 358.908,55.69L358.908,59.19C358.908,59.604 359.244,59.94 359.658,59.94L361.158,59.94C361.572,59.94 361.908,59.604 361.908,59.19L361.908,55.69ZM356.908,55.69C356.908,55.276 356.572,54.94 356.158,54.94L354.658,54.94C354.244,54.94 353.908,55.276 353.908,55.69L353.908,59.19C353.908,59.604 354.244,59.94 354.658,59.94L356.158,59.94C356.572,59.94 356.908,59.604 356.908,59.19L356.908,55.69ZM531.959,55.69C531.959,55.276 531.623,54.94 531.209,54.94L529.709,54.94C529.295,54.94 528.959,55.276 528.959,55.69L528.959,59.19C528.959,59.604 529.295,59.94 529.709,59.94L531.209,59.94C531.623,59.94 531.959,59.604 531.959,59.19L531.959,55.69ZM546.999,55.69C546.999,55.276 546.663,54.94 546.249,54.94L544.749,54.94C544.335,54.94 543.999,55.276 543.999,55.69L543.999,59.19C543.999,59.604 544.335,59.94 544.749,59.94L546.249,59.94C546.663,59.94 546.999,59.604 546.999,59.19L546.999,55.69ZM542.038,55.69C542.038,55.276 541.702,54.94 541.288,54.94L539.788,54.94C539.374,54.94 539.038,55.276 539.038,55.69L539.038,59.19C539.038,59.604 539.374,59.94 539.788,59.94L541.288,59.94C541.702,59.94 542.038,59.604 542.038,59.19L542.038,55.69ZM566.946,55.69C566.946,55.276 566.61,54.94 566.196,54.94L564.696,54.94C564.282,54.94 563.946,55.276 563.946,55.69L563.946,59.19C563.946,59.604 564.282,59.94 564.696,59.94L566.196,59.94C566.61,59.94 566.946,59.604 566.946,59.19L566.946,55.69ZM557.008,55.69C557.008,55.276 556.672,54.94 556.258,54.94L554.758,54.94C554.344,54.94 554.008,55.276 554.008,55.69L554.008,59.19C554.008,59.604 554.344,59.94 554.758,59.94L556.258,59.94C556.672,59.94 557.008,59.604 557.008,59.19L557.008,55.69ZM552.008,55.69C552.008,55.276 551.672,54.94 551.258,54.94L549.758,54.94C549.344,54.94 549.008,55.276 549.008,55.69L549.008,59.19C549.008,59.604 549.344,59.94 549.758,59.94L551.258,59.94C551.672,59.94 552.008,59.604 552.008,59.19L552.008,55.69ZM561.245,59.94C561.654,59.935 561.985,59.601 561.985,59.19L561.985,55.69C561.985,55.276 561.649,54.94 561.235,54.94L559.735,54.94C559.321,54.94 558.985,55.276 558.985,55.69L558.985,59.19C558.985,59.604 559.321,59.94 559.735,59.94L561.245,59.94ZM576.955,55.69C576.955,55.276 576.619,54.94 576.205,54.94L574.705,54.94C574.291,54.94 573.955,55.276 573.955,55.69L573.955,59.19C573.955,59.604 574.291,59.94 574.705,59.94L576.205,59.94C576.619,59.94 576.955,59.604 576.955,59.19L576.955,55.69ZM581.931,55.69C581.931,55.276 581.595,54.94 581.181,54.94L579.681,54.94C579.267,54.94 578.931,55.276 578.931,55.69L578.931,59.19C578.931,59.604 579.267,59.94 579.681,59.94L581.181,59.94C581.595,59.94 581.931,59.604 581.931,59.19L581.931,55.69ZM571.955,55.69C571.955,55.276 571.619,54.94 571.205,54.94L569.705,54.94C569.291,54.94 568.955,55.276 568.955,55.69L568.955,59.19C568.955,59.604 569.291,59.94 569.705,59.94L571.205,59.94C571.619,59.94 571.955,59.604 571.955,59.19L571.955,55.69Z"/>
            </g>
            <g transform="matrix(0.666667,0,0,1.02176,11.7024,-1.32604)">
                <rect x="19.946" y="60.94" width="3" height="29.361"/>
            </g>
            <g transform="matrix(0.666667,0,0,1.02176,58.7024,-1.32604)">
                <rect x="19.946" y="60.94" width="3" height="29.361"/>
            </g>
            <g transform="matrix(0.666667,0,0,1.02176,105.747,-1.32604)">
                <rect x="19.946" y="60.94" width="3" height="29.361"/>
            </g>
            <g transform="matrix(0.666667,0,0,1.02176,152.747,-1.32604)">
                <rect x="19.946" y="60.94" width="3" height="29.361"/>
            </g>
            <g transform="matrix(0.666667,0,0,1.02176,199.747,-1.32604)">
                <rect x="19.946" y="60.94" width="3" height="29.361"/>
            </g>
            <g transform="matrix(0.666667,0,0,1.02176,246.747,-1.32604)">
                <rect x="19.946" y="60.94" width="3" height="29.361"/>
            </g>
            <g transform="matrix(0.666667,0,0,1.02176,293.747,-1.32604)">
                <rect x="19.946" y="60.94" width="3" height="29.361"/>
            </g>
            <g transform="matrix(0.666667,0,0,1.02176,340.747,-1.32604)">
                <rect x="19.946" y="60.94" width="3" height="29.361"/>
            </g>
            <g transform="matrix(0.666667,0,0,1.02176,387.747,-1.32604)">
                <rect x="19.946" y="60.94" width="3" height="29.361"/>
            </g>
            <g transform="matrix(0.666667,0,0,1.02176,434.747,-1.32604)">
                <rect x="19.946" y="60.94" width="3" height="29.361"/>
            </g>
            <g transform="matrix(0.666667,0,0,1.02176,481.747,-1.32604)">
                <rect x="19.946" y="60.94" width="3" height="29.361"/>
            </g>
            <g transform="matrix(0.666667,0,0,1.02176,528.747,-1.32604)">
                <rect x="19.946" y="60.94" width="3" height="29.361"/>
            </g>
            <g transform="matrix(0.666667,0,0,1.02176,575.747,-1.32604)">
                <rect x="19.946" y="60.94" width="3" height="29.361"/>
            </g>
        </g>
    </g>
</svg>
